<?xml version="1.0" encoding="UTF-8" standalone="no"?>
<!-- Created with Inkscape (http://www.inkscape.org/) -->

<svg
   width="155.63921mm"
   height="74.313301mm"
   viewBox="0 0 155.6392 74.313301"
   version="1.1"
   id="svg1"
   xml:space="preserve"
   inkscape:version="1.3 (0e150ed6c4, 2023-07-21)"
   sodipodi:docname="onibi_readme.svg"
   xmlns:inkscape="http://www.inkscape.org/namespaces/inkscape"
   xmlns:sodipodi="http://sodipodi.sourceforge.net/DTD/sodipodi-0.dtd"
   xmlns="http://www.w3.org/2000/svg"
   xmlns:svg="http://www.w3.org/2000/svg"><sodipodi:namedview
     id="namedview1"
     pagecolor="#ffffff"
     bordercolor="#666666"
     borderopacity="1.0"
     inkscape:showpageshadow="2"
     inkscape:pageopacity="0.0"
     inkscape:pagecheckerboard="0"
     inkscape:deskcolor="#d1d1d1"
     inkscape:document-units="mm"
     inkscape:zoom="1.4022026"
     inkscape:cx="271.71538"
     inkscape:cy="121.59441"
     inkscape:window-width="1920"
     inkscape:window-height="1001"
     inkscape:window-x="-9"
     inkscape:window-y="-9"
     inkscape:window-maximized="1"
     inkscape:current-layer="layer1" /><defs
     id="defs1"><rect
       x="177.0033"
       y="856.77661"
       width="455.87173"
       height="73.121017"
       id="rect3" /></defs><g
     inkscape:label="Warstwa 1"
     inkscape:groupmode="layer"
     id="layer1"
     transform="translate(-38.327406,-168.26366)"><rect
       style="fill:#ffffff;fill-rule:evenodd;stroke:#ffffff;stroke-width:1.992;stroke-linecap:round;stroke-linejoin:round;stroke-opacity:1"
       id="rect1"
       width="153.6472"
       height="72.321304"
       x="39.323406"
       y="169.25966"
       rx="4.5635719"
       ry="4.5635719" /><g
       id="g3"
       transform="translate(0.2668497,0.2668497)"><g
         id="g2"
         transform="translate(-6.1375431,-1.8679479)"><path
           style="fill:none;stroke:#ff6a16;stroke-width:3.465;stroke-linecap:round;stroke-linejoin:miter;stroke-dasharray:none;stroke-opacity:1"
           d="m 135.9005,197.55838 c -3.43576,8.48405 17.62384,19.36524 18.08485,-2.012 0.28208,-13.08033 -24.88924,-12.87537 -30.68542,-2.3176 -5.59662,10.19427 3.01212,28.62552 20.99905,25.05428 26.73972,-5.30907 20.71087,-31.71055 9.60658,-39.09348 -9.66926,-6.42882 -26.68497,-7.07152 -46.16499,14.94358 -9.431227,10.65858 -21.08113,14.27646 -28.419496,14.00961 -7.338367,-0.26685 -6.404393,14.54331 -23.482774,10.27371 -17.07838,-4.26959 4.403019,7.73864 13.075634,5.20357 8.672616,-2.53507 -0.533699,-7.87206 20.013729,-4.93672 23.438577,3.34837 22.247037,-20.3269 34.577147,-9.91251"
           id="path1"
           sodipodi:nodetypes="csssssssssc" /><text
           xml:space="preserve"
           transform="scale(0.26458333)"
           id="text3"
           style="font-style:normal;font-weight:normal;font-size:40px;line-height:1.25;font-family:sans-serif;white-space:pre;shape-inside:url(#rect3);display:inline;fill:#000000;fill-opacity:1;stroke:none" /><path
           style="font-size:22.5778px;line-height:1.25;font-family:'roboto slab';-inkscape-font-specification:'roboto slab';stroke-width:0.265"
           d="m 90.49438,240.32984 q -1.598526,0 -2.888371,-0.59531 -1.289845,-0.60634 -2.215887,-1.69775 -0.915019,-1.09141 -1.411113,-2.57969 -0.496094,-1.48828 -0.496094,-3.2632 v -0.24253 q 0,-1.76389 0.496094,-3.25218 0.496094,-1.48828 1.411113,-2.57969 0.926042,-1.10243 2.215887,-1.69774 1.289845,-0.60634 2.877347,-0.60634 1.642623,0 2.943493,0.60634 1.300869,0.59531 2.215887,1.69774 0.915018,1.09141 1.400088,2.57969 0.48507,1.48829 0.48507,3.25218 v 0.24253 q 0,1.77492 -0.48507,3.2632 -0.48507,1.48828 -1.400088,2.57969 -0.915018,1.09141 -2.215887,1.69775 -1.30087,0.59531 -2.932469,0.59531 z m 0,-2.20487 q 1.45521,0 2.392277,-0.73862 0.948091,-0.74966 1.400088,-2.0836 0.463022,-1.33394 0.463022,-3.10886 v -0.26458 q 0,-1.75287 -0.463022,-3.07579 -0.463021,-1.32291 -1.411112,-2.07257 -0.937067,-0.74965 -2.392277,-0.74965 -1.389064,0 -2.326131,0.74965 -0.937067,0.74966 -1.411112,2.07257 -0.474046,1.32292 -0.474046,3.07579 v 0.26458 q 0,1.76389 0.474046,3.10886 0.474045,1.33394 1.411112,2.0836 0.948091,0.73862 2.337155,0.73862 z m 8.488725,1.97336 v -1.69775 l 1.752865,-0.33073 v -11.98343 l -1.752865,-0.33073 v -1.70877 h 1.752865 2.8112 l 7.36425,11.71885 0.0661,-0.0221 v -9.6573 l -2.02847,-0.33073 v -1.70877 h 4.53099 1.75287 v 1.70877 l -1.75287,0.33073 v 14.01191 h -2.63481 l -7.54063,-11.67475 -0.0662,0.011 v 9.63525 l 2.02848,0.33073 v 1.69775 z m 17.616855,0 v -1.69775 l 1.75287,-0.33073 v -11.98343 l -1.75287,-0.33073 v -1.70877 h 6.27284 v 1.70877 l -1.74184,0.33073 v 11.98343 l 1.74184,0.33073 v 1.69775 z m 7.73907,0 v -1.69775 l 1.75287,-0.33073 v -11.98343 l -1.75287,-0.33073 v -1.70877 h 1.75287 5.29167 q 2.70096,0 4.21129,1.10243 1.52136,1.09141 1.52136,3.27423 0,1.0914 -0.62839,1.96232 -0.62839,0.8599 -1.74184,1.27883 0.97014,0.20946 1.6316,0.76067 0.66146,0.55122 1.00321,1.34497 0.35278,0.78273 0.35278,1.71979 0,2.25999 -1.48829,3.43959 -1.47725,1.16858 -4.12309,1.16858 z m 4.531,-2.13872 h 3.25217 q 1.36702,0 2.09462,-0.62839 0.73863,-0.63941 0.73863,-1.84106 0,-0.84887 -0.27561,-1.44418 -0.27561,-0.59532 -0.83785,-0.91502 -0.56224,-0.31971 -1.44418,-0.31971 h -3.52778 z m 0,-7.14376 h 2.82222 q 1.23472,0 1.94028,-0.59531 0.70556,-0.59531 0.70556,-1.66467 0,-1.20165 -0.74966,-1.77492 -0.74965,-0.58429 -2.20486,-0.58429 h -2.51354 z m 10.18647,9.28248 v -1.69775 l 1.75286,-0.33073 v -11.98343 l -1.75286,-0.33073 v -1.70877 h 6.27283 v 1.70877 l -1.74184,0.33073 v 11.98343 l 1.74184,0.33073 v 1.69775 z m 13.30634,0 v -1.69775 l 1.75287,-0.33073 v -11.98343 l -1.75287,-0.33073 v -1.70877 h 1.75287 5.77674 q 1.79697,0 3.07579,0.62839 1.28984,0.62838 1.97335,1.75286 0.68351,1.11346 0.68351,2.61277 0,1.4993 -0.68351,2.62379 -0.68351,1.11345 -1.97335,1.73081 -1.27882,0.61736 -3.07579,0.61736 h -2.99861 v 4.05695 l 1.75286,0.33073 v 1.69775 z m 4.531,-8.23517 h 2.99861 q 1.47726,0 2.21589,-0.79375 0.73863,-0.79375 0.73863,-2.00642 0,-1.23473 -0.73863,-2.05053 -0.73863,-0.8158 -2.21589,-0.8158 h -2.99861 z m 9.94393,8.23517 v -1.69775 l 1.75287,-0.33073 v -11.98343 l -1.75287,-0.33073 v -1.70877 h 7.41937 q 1.80799,0 3.08681,0.56224 1.27882,0.55122 1.9513,1.5875 0.67248,1.03629 0.67248,2.50252 0,1.41112 -0.67248,2.45843 -0.66146,1.04731 -1.86311,1.6316 -1.19062,0.57326 -2.80017,0.59531 l -3.2632,0.0331 v 4.65226 l 1.75286,0.33073 v 1.69775 z m 10.44003,0 -3.06476,-7.38629 2.60174,-0.42995 2.60174,5.83186 1.25677,0.26458 v 1.7198 z m -5.90903,-8.8415 h 2.7671 q 1.56545,0 2.31511,-0.62839 0.74965,-0.63941 0.74965,-1.85209 0,-1.1796 -0.7276,-1.87413 -0.72761,-0.70556 -2.21589,-0.70556 h -2.88837 z m 17.90349,9.07301 q -1.59853,0 -2.88837,-0.59531 -1.28985,-0.60634 -2.21589,-1.69775 -0.91502,-1.09141 -1.41111,-2.57969 -0.4961,-1.48828 -0.4961,-3.2632 v -0.24253 q 0,-1.76389 0.4961,-3.25218 0.49609,-1.48828 1.41111,-2.57969 0.92604,-1.10243 2.21589,-1.69774 1.28984,-0.60634 2.87734,-0.60634 1.64263,0 2.9435,0.60634 1.30087,0.59531 2.21588,1.69774 0.91502,1.09141 1.40009,2.57969 0.48507,1.48829 0.48507,3.25218 v 0.24253 q 0,1.77492 -0.48507,3.2632 -0.48507,1.48828 -1.40009,2.57969 -0.91501,1.09141 -2.21588,1.69775 -1.30087,0.59531 -2.93247,0.59531 z m 0,-2.20487 q 1.45521,0 2.39227,-0.73862 0.9481,-0.74966 1.40009,-2.0836 0.46302,-1.33394 0.46302,-3.10886 v -0.26458 q 0,-1.75287 -0.46302,-3.07579 -0.46302,-1.32291 -1.41111,-2.07257 -0.93707,-0.74965 -2.39228,-0.74965 -1.38906,0 -2.32613,0.74965 -0.93706,0.74966 -1.41111,2.07257 -0.47405,1.32292 -0.47405,3.07579 v 0.26458 q 0,1.76389 0.47405,3.10886 0.47405,1.33394 1.41111,2.0836 0.94809,0.73862 2.33716,0.73862 z"
           id="text4"
           aria-label="ONIBI PRO" /></g></g></g></svg>
