<?xml version="1.0" encoding="UTF-8" standalone="no"?>
<!-- Created with Inkscape (http://www.inkscape.org/) -->

<svg
   width="39.518002mm"
   height="39.518002mm"
   viewBox="0 0 39.518002 39.518"
   version="1.1"
   id="svg1"
   xml:space="preserve"
   inkscape:version="1.3 (0e150ed6c4, 2023-07-21)"
   sodipodi:docname="onibi_ico.svg"
   xmlns:inkscape="http://www.inkscape.org/namespaces/inkscape"
   xmlns:sodipodi="http://sodipodi.sourceforge.net/DTD/sodipodi-0.dtd"
   xmlns="http://www.w3.org/2000/svg"
   xmlns:svg="http://www.w3.org/2000/svg"><sodipodi:namedview
     id="namedview1"
     pagecolor="#ffffff"
     bordercolor="#666666"
     borderopacity="1.0"
     inkscape:showpageshadow="2"
     inkscape:pageopacity="0.0"
     inkscape:pagecheckerboard="0"
     inkscape:deskcolor="#d1d1d1"
     inkscape:document-units="mm"
     inkscape:zoom="2.8044052"
     inkscape:cx="116.24569"
     inkscape:cy="41.898368"
     inkscape:window-width="1920"
     inkscape:window-height="1001"
     inkscape:window-x="-9"
     inkscape:window-y="-9"
     inkscape:window-maximized="1"
     inkscape:current-layer="g2" /><defs
     id="defs1"><rect
       x="177.0033"
       y="856.77661"
       width="455.87173"
       height="73.121017"
       id="rect3" /></defs><g
     inkscape:label="Warstwa 1"
     inkscape:groupmode="layer"
     id="layer1"
     transform="translate(-38.930966,-170.72931)"><g
       id="g3"
       transform="matrix(0.31202829,0,0,0.31202829,28.860389,118.38267)"><g
         id="g2"
         transform="translate(-6.1375431,-1.8679479)"><rect
           style="fill:#ffffff;fill-opacity:1;fill-rule:evenodd;stroke:#ff6a16;stroke-width:3.60696;stroke-linecap:round;stroke-linejoin:round;stroke-dasharray:none;stroke-opacity:1"
           id="rect2"
           width="122.27146"
           height="121.96909"
           x="40.167751"
           y="171.99078"
           rx="25.661724"
           ry="20.654152" /><path
           style="display:none;fill:none;stroke:#ffffff;stroke-width:3.72402;stroke-linecap:round;stroke-linejoin:miter;stroke-dasharray:none;stroke-opacity:1"
           d="m 132.90057,228.38481 c -3.69246,9.11793 18.9406,20.8121 19.43605,-2.16233 0.30316,-14.05762 -26.74882,-13.83734 -32.97806,-2.49075 -6.01477,10.95593 3.23717,30.76426 22.56798,26.92619 28.73757,-5.70573 22.25827,-34.07978 10.32433,-42.01433 -10.39169,-6.90914 -28.67872,-7.59986 -49.61418,16.06009 -10.135884,11.45493 -22.6562,15.34311 -30.542852,15.05633 -7.886649,-0.28679 -6.882894,15.6299 -25.237277,11.0413 -18.354383,-4.58859 4.731988,8.31683 14.052573,5.59235 9.320586,-2.72447 -0.573574,-8.46021 21.509045,-5.30556 25.189781,3.59854 23.909221,-21.84561 37.160571,-10.65312"
           id="path1-9"
           sodipodi:nodetypes="csssssssssc" /><path
           style="fill:none;stroke:#ff6a16;stroke-width:6.26956;stroke-linecap:round;stroke-linejoin:miter;stroke-dasharray:none;stroke-opacity:1"
           d="m 129.4726,228.8969 c -3.3078,8.16808 16.96748,18.64403 17.41131,-1.93706 0.27158,-12.59318 -23.96229,-12.39585 -29.54259,-2.23128 -5.38819,9.8146 2.89993,27.55941 20.21698,24.12118 25.74385,-5.11134 19.93953,-30.52955 9.2488,-37.63751 -9.30914,-6.1894 -25.69115,-6.80816 -44.44566,14.38702 -9.079969,10.26162 -20.295991,13.74476 -27.361054,13.48784 -7.065062,-0.2569 -6.165873,14.00168 -22.6082,9.8911 -16.442326,-4.11058 4.239036,7.45042 12.588656,5.00976 8.349619,-2.44064 -0.513822,-7.57888 19.268353,-4.75286 22.565635,3.22368 21.418485,-19.56986 33.289375,-9.54334"
           id="path1"
           sodipodi:nodetypes="csssssssssc" /><text
           xml:space="preserve"
           transform="scale(0.26458333)"
           id="text3"
           style="font-style:normal;font-weight:normal;font-size:40px;line-height:1.25;font-family:sans-serif;white-space:pre;shape-inside:url(#rect3);display:inline;fill:#000000;fill-opacity:1;stroke:none" /><text
           xml:space="preserve"
           style="font-style:normal;font-weight:normal;font-size:22.5778px;line-height:1.25;font-family:sans-serif;fill:#000000;fill-opacity:1;stroke:none;stroke-width:0.265;stroke-dasharray:none"
           x="82.744286"
           y="240.09833"
           id="text4"><tspan
             sodipodi:role="line"
             id="tspan4"
             style="font-style:normal;font-variant:normal;font-weight:normal;font-stretch:normal;font-size:22.5778px;font-family:'roboto slab';-inkscape-font-specification:'roboto slab';stroke-width:0.265;stroke-dasharray:none"
             x="82.744286"
             y="240.09833" /></text></g></g></g></svg>
